<svg aria-hidden="true" focusable="false" data-prefix="fad" data-icon="credit-card-front" class="svg-inline--fa fa-credit-card-front fa-w-18" role="img" xmlns="http://www.w3.org/2000/svg" viewBox="0 0 576 512"><g class="fa-group"><path class="fa-secondary" fill="#80B9BF" d="M268 256h-64a12 12 0 0 0-12 12v40a12 12 0 0 0 12 12h64a12 12 0 0 0 12-12v-40a12 12 0 0 0-12-12zm-104 0H76a12 12 0 0 0-12 12v40a12 12 0 0 0 12 12h88a12 12 0 0 0 12-12v-40a12 12 0 0 0-12-12zm208 0h-64a12 12 0 0 0-12 12v40a12 12 0 0 0 12 12h64a12 12 0 0 0 12-12v-40a12 12 0 0 0-12-12zm128 0h-88a12 12 0 0 0-12 12v40a12 12 0 0 0 12 12h88a12 12 0 0 0 12-12v-40a12 12 0 0 0-12-12z" opacity="0.4"></path><path class="fa-primary" fill="#28687F" d="M528 32H48A48 48 0 0 0 0 80v352a48 48 0 0 0 48 48h480a48 48 0 0 0 48-48V80a48 48 0 0 0-48-48zM192 268a12 12 0 0 1 12-12h64a12 12 0 0 1 12 12v40a12 12 0 0 1-12 12h-64a12 12 0 0 1-12-12zm-32 136a12 12 0 0 1-12 12H76a12 12 0 0 1-12-12v-8a12 12 0 0 1 12-12h72a12 12 0 0 1 12 12zm16-96a12 12 0 0 1-12 12H76a12 12 0 0 1-12-12v-40a12 12 0 0 1 12-12h88a12 12 0 0 1 12 12zm176 96a12 12 0 0 1-12 12H204a12 12 0 0 1-12-12v-8a12 12 0 0 1 12-12h136a12 12 0 0 1 12 12zm32-96a12 12 0 0 1-12 12h-64a12 12 0 0 1-12-12v-40a12 12 0 0 1 12-12h64a12 12 0 0 1 12 12zm128 0a12 12 0 0 1-12 12h-88a12 12 0 0 1-12-12v-40a12 12 0 0 1 12-12h88a12 12 0 0 1 12 12zm0-140a23.94 23.94 0 0 1-24 24h-80a23.94 23.94 0 0 1-24-24v-48a23.94 23.94 0 0 1 24-24h80a23.94 23.94 0 0 1 24 24z"></path></g></svg>