<svg xmlns="http://www.w3.org/2000/svg" viewBox="0 0 384 512"><defs></defs><path class="fa-primary" fill="#28687F" d="M256 0v128h128L256 0zM312 224h-240c-8.875 0-16 7.125-16 16v192c0 8.875 7.125 16 16 16h240c8.875 0 16-7.125 16-16v-192C328 231.1 320.9 224 312 224zM136 416h-48v-48h48V416zM136 336h-48V288h48V336zM216 416h-48v-48h48V416zM216 336h-48V288h48V336zM296 416h-48v-48h48V416zM296 336h-48V288h48V336z"></path><path class="fa-secondary" opacity=".4" fill="#80B9BF" d="M256 128V0H48C21.49 0 0 21.49 0 48v416C0 490.5 21.49 512 48 512h288c26.51 0 48-21.49 48-48V128H256zM328 432c0 8.875-7.125 16-16 16h-240c-8.875 0-16-7.125-16-16v-192c0-8.875 7.125-16 16-16h240c8.875 0 16 7.125 16 16V432z"></path></svg>